<?xml version="1.0" encoding="UTF-8"?>
<svg xmlns="http://www.w3.org/2000/svg" fill="white" id="Layer_1" data-name="Layer 1" viewBox="0 0 24 24"> 
  <path d="m15.509,8.001s-1.143,0-1.21.002c0,0-.001,0-.002,0-3.205.083-6.48,2.029-8.619,3.762-.677.549-1.685.079-1.685-.793h0c0-.298.123-.583.35-.777.577-.494,1.239-.92,1.955-1.396.033-.228.068-.455.106-.682l.466-2.765c2.208-.572,3.903-2.506,4.127-4.834.027-.286-.226-.535-.513-.518-3.75.225-4.985,2.775-4.985,2.775C5.5,2.776,4.22.229.516,0,.228-.017-.026.233.002.52c.197,2.047,1.539,3.794,3.356,4.57l-.504.756C.993,8.638,0,11.918,0,15.273h0c0,4.82,3.907,8.727,8.727,8.727h10.273c2.761,0,5-2.239,5-5v-2.499c0-4.683-3.81-8.496-8.491-8.5Zm-.009,10.999c-.828,0-1.5-.672-1.5-1.5s.672-1.5,1.5-1.5,1.5.672,1.5,1.5-.672,1.5-1.5,1.5Z"/>
</svg>
