<?xml version="1.0" encoding="UTF-8"?>
<svg fill="#ffffff" xmlns="http://www.w3.org/2000/svg" id="Layer_1" data-name="Layer 1" viewBox="0 0 24 24">
  <path d="m24,9c0,1.103-.897,2-2,2h-5.899c-.144,0-.3.01-.451.015-.122.873-.395,2-.948,3.44-.237.617-1.28.776-1.418.13-.299-1.397-.686-2.284-1.057-2.849-1.084.463-2.114,1.185-2.904,2.331-.898,1.302-1.546,3.148-1.75,4.858,1.656.673,2.967,2.096,3.396,3.818.169.681-.397,1.351-1.09,1.245-3.153-.481-4.38-2.737-4.38-2.737,0,0-1.189,2.26-4.38,2.737-.693.104-1.259-.566-1.09-1.246.398-1.601,1.56-2.938,3.05-3.661-.465-1.37-1.081-3.64-1.081-6.082,0-3.048.628-5.467,1.652-7.355-.718-1.273-1.783-2.683-3.379-3.946C-.451,1.127.394-.081,1.313.004c2.643.244,4.674.905,6.174,1.608,1.877-1.123,4.008-1.612,6.014-1.612,5.112,0,7.991,3.377,8.438,7,1.103,0,2.062.897,2.062,2Z"/>
</svg>
